HIERARCHY
ROOT Hips
{
	OFFSET 0.000000 0.000000 0.000000
	CHANNELS 6 Xposition Yposition Zposition Xrotation Yrotation Zrotation
	JOINT LeftUpLeg_virtual
	{
		OFFSET 0.000000 0.000000 0.000000
		CHANNELS 3 Xrotation Yrotation Zrotation
		JOINT LeftUpLeg
		{
			OFFSET 13.026900 -6.336304 -1.092800
			CHANNELS 3 Xrotation Yrotation Zrotation
			JOINT LeftLeg
			{
				OFFSET 0.524474 -46.096886 9.782700
				CHANNELS 3 Xrotation Yrotation Zrotation
				JOINT LeftFoot
				{
					OFFSET -0.524474 -53.427422 -12.948200
					CHANNELS 3 Xrotation Yrotation Zrotation
					JOINT LeftToeBase
					{
						OFFSET 0.192200 -14.009700 16.364100
						CHANNELS 3 Xrotation Yrotation Zrotation
						JOINT LeftToe_End
						{
							OFFSET -1.784700 -0.561700 9.474800
							CHANNELS 3 Xrotation Yrotation Zrotation
							End Site
							{
								OFFSET 0 0 0
							}
						}
					}
				}
			}
		}
	}
	JOINT RightUpLeg_virtual
	{
		OFFSET 0.000000 0.000000 0.000000
		CHANNELS 3 Xrotation Yrotation Zrotation
		JOINT RightUpLeg
		{
			OFFSET -12.883000 -6.336304 -1.092800
			CHANNELS 3 Xrotation Yrotation Zrotation
			JOINT RightLeg
			{
				OFFSET -0.524587 -46.096825 9.782800
				CHANNELS 3 Xrotation Yrotation Zrotation
				JOINT RightFoot
				{
					OFFSET 0.524587 -53.427383 -12.948300
					CHANNELS 3 Xrotation Yrotation Zrotation
					JOINT RightToeBase
					{
						OFFSET -0.192200 -14.009700 16.364100
						CHANNELS 3 Xrotation Yrotation Zrotation
						JOINT RightToe_End
						{
							OFFSET 1.784700 -0.561700 9.474800
							CHANNELS 3 Xrotation Yrotation Zrotation
							End Site
							{
								OFFSET 0 0 0
							}
						}
					}
				}
			}
		}
	}
	JOINT Spine_virtual
	{
		OFFSET 0.000000 0.000000 0.000000
		CHANNELS 3 Xrotation Yrotation Zrotation
		JOINT Spine
		{
			OFFSET 0.072000 7.257294 -0.789700
			CHANNELS 3 Xrotation Yrotation Zrotation
			JOINT Spine1
			{
				OFFSET 0.000000 12.508769 -0.658067
				CHANNELS 3 Xrotation Yrotation Zrotation
				JOINT Spine1_split
				{
					OFFSET 0.000000 12.508769 -0.658067
					CHANNELS 3 Xrotation Yrotation Zrotation
					JOINT Spine2
					{
						OFFSET 0.000000 12.508769 -0.658067
						CHANNELS 3 Xrotation Yrotation Zrotation
						JOINT Neck_virtual
						{
							OFFSET 0.000000 0.000000 0.000000
							CHANNELS 3 Xrotation Yrotation Zrotation
							JOINT Neck
							{
								OFFSET 0.000000 14.033295 7.520400
								CHANNELS 3 Xrotation Yrotation Zrotation
								JOINT Head
								{
									OFFSET 0.000000 8.198502 5.703100
									CHANNELS 3 Xrotation Yrotation Zrotation
									JOINT HeadTop_End
									{
										OFFSET 0.000000 17.760803 13.332701
										CHANNELS 3 Xrotation Yrotation Zrotation
										End Site
										{
											OFFSET 0 0 0
										}
									}
								}
							}
						}
						JOINT LeftShoulder_virtual
						{
							OFFSET 0.000000 0.000000 0.000000
							CHANNELS 3 Xrotation Yrotation Zrotation
							JOINT LeftShoulder
							{
								OFFSET 6.292450 5.785301 -0.669000
								CHANNELS 3 Xrotation Yrotation Zrotation
								JOINT LeftShoulder_split
								{
									OFFSET 6.292450 5.785301 -0.669000
									CHANNELS 3 Xrotation Yrotation Zrotation
									JOINT LeftArm
									{
										OFFSET 13.907140 -6.093903 1.965100
										CHANNELS 3 Xrotation Yrotation Zrotation
										JOINT LeftForeArm
										{
											OFFSET 34.140198 0.000000 0.000000
											CHANNELS 3 Xrotation Yrotation Zrotation
											JOINT LeftHand
											{
												OFFSET 40.960209 0.000000 0.000000
												CHANNELS 3 Xrotation Yrotation Zrotation
												End Site
												{
													OFFSET 0 0 0
												}
											}
										}
									}
								}
							}
						}
						JOINT RightShoulder_virtual
						{
							OFFSET 0.000000 0.000000 0.000000
							CHANNELS 3 Xrotation Yrotation Zrotation
							JOINT RightShoulder
							{
								OFFSET -6.292450 5.785301 -0.669000
								CHANNELS 3 Xrotation Yrotation Zrotation
								JOINT RightShoulder_split
								{
									OFFSET -6.292450 5.785301 -0.669000
									CHANNELS 3 Xrotation Yrotation Zrotation
									JOINT RightArm
									{
										OFFSET -13.907140 -6.093903 1.965100
										CHANNELS 3 Xrotation Yrotation Zrotation
										JOINT RightForeArm
										{
											OFFSET -34.140198 0.000000 0.000000
											CHANNELS 3 Xrotation Yrotation Zrotation
											JOINT RightHand
											{
												OFFSET -40.960209 0.000000 0.000000
												CHANNELS 3 Xrotation Yrotation Zrotation
												End Site
												{
													OFFSET 0 0 0
												}
											}
										}
									}
								}
							}
						}
					}
				}
			}
		}
	}
}
MOTION
Frames: 7
Frame Time: 0.03333333
3.762585 93.354774 20.358089 0.000000 0.000000 0.000000 -0.167582 -36.357660 -2.952695 -43.059743 0.330458 21.838413 61.369550 3.298530 -0.527122 -15.783056 -9.226205 -9.477150 -3.349789 -0.247748 1.138683 0.000000 0.000000 0.000000 -0.673497 -30.848594 -2.823628 -10.669303 -15.502550 -25.780208 51.566736 -2.110511 -9.982181 -11.722513 -9.926842 26.512665 -15.722430 0.555670 3.045719 0.000000 0.000000 0.000000 -0.933446 -30.518105 -3.264396 12.345030 9.531873 -4.326510 1.908840 2.087098 -2.011309 0.972017 -0.502827 0.914581 0.000000 0.000000 0.000000 3.812337 1.368971 -1.404794 -10.981950 9.968005 6.168374 0.674423 8.843934 -1.004597 0.000000 0.000000 0.000000 2.715957 1.885549 -1.604459 0.693897 0.165716 -5.503201 -1.989337 -2.942110 -0.210587 -59.364111 2.354821 -46.228732 -179.281729 -73.483055 -178.465849 0.000000 0.000000 0.000000 2.876003 1.394790 -1.780592 3.537742 22.315606 -4.684710 -8.075834 -3.607676 2.187593 -42.295806 17.882306 48.812650 -178.481736 62.281742 177.538432 0.000000 0.000000 0.000000 
3.775785 92.609398 17.871319 0.000000 0.000000 0.000000 -1.673885 -39.680151 -3.123254 -42.516725 0.645625 23.405224 61.805514 3.474474 -0.886045 -14.407669 -7.891668 -10.172864 -3.656406 -0.253573 1.213444 0.000000 0.000000 0.000000 -2.291188 -33.989207 -2.935944 -12.125699 -15.324619 -27.159045 54.192254 -4.264499 -9.123861 -16.069963 -12.181751 26.467162 -10.975603 0.781324 1.636144 0.000000 0.000000 0.000000 -2.598468 -33.655108 -3.347018 12.689598 9.182110 -3.502466 2.053358 1.980679 -1.855747 0.923926 -0.369193 1.040027 0.000000 0.000000 0.000000 3.799703 1.313583 -1.261836 -10.506391 10.678645 5.708257 1.589299 11.393410 -2.042198 0.000000 0.000000 0.000000 2.903558 1.783380 -1.430874 0.803488 0.225356 -5.354676 -1.608399 -2.928240 -0.271562 -60.333800 3.237928 -46.380697 -179.531317 -73.512028 -178.951967 0.000000 0.000000 0.000000 2.952306 1.277849 -1.634960 3.647273 21.962422 -5.137216 -7.521649 -2.978123 2.316850 -44.732647 18.140383 52.587249 -177.653862 62.898816 176.701215 0.000000 0.000000 0.000000 
3.609269 91.983582 15.257511 0.000000 0.000000 0.000000 -3.012215 -42.221521 -3.200994 -42.135929 0.614321 24.750222 61.574811 3.306399 -1.095528 -12.466646 -7.038576 -11.109604 -3.802867 -0.229686 1.263173 0.000000 0.000000 0.000000 -3.893114 -36.655078 -2.930130 -13.539504 -14.670230 -28.518109 56.073432 -5.623071 -8.335490 -18.997652 -13.245853 27.242799 -8.342601 0.846570 0.590428 0.000000 0.000000 0.000000 -3.962785 -36.173829 -3.251720 12.871658 8.842844 -2.700061 2.185987 1.847145 -1.660905 0.937300 -0.299100 1.076722 0.000000 0.000000 0.000000 3.737436 1.247782 -1.089197 -9.899127 11.219871 5.075448 2.475706 13.322611 -2.968108 0.000000 0.000000 0.000000 3.117741 1.653278 -1.241428 0.927979 0.329678 -5.534702 -1.363970 -2.788872 -0.398289 -60.712151 3.906005 -46.592795 -179.814197 -74.121971 -179.410519 0.000000 0.000000 0.000000 3.109089 1.165907 -1.444595 3.698309 21.287420 -5.504427 -6.882797 -2.437213 2.393900 -47.175833 18.142396 56.450615 -177.332707 62.960930 176.328205 0.000000 0.000000 0.000000 
3.262022 91.582336 12.534134 0.000000 0.000000 0.000000 -4.066560 -43.973188 -3.143807 -41.835844 0.336447 25.818846 60.603825 3.032442 -1.157906 -10.113960 -6.640948 -11.929650 -3.698169 -0.180361 1.222443 0.000000 0.000000 0.000000 -5.317295 -38.684276 -2.829267 -14.665000 -13.697681 -29.589192 56.622740 -6.195834 -7.788389 -20.665188 -13.209459 28.700718 -7.264701 0.821515 -0.008032 0.000000 0.000000 0.000000 -4.948069 -38.013985 -2.988443 12.865478 8.491270 -1.949043 2.293705 1.681556 -1.434458 0.974690 -0.244410 1.067890 0.000000 0.000000 0.000000 3.649403 1.166874 -0.887530 -9.091598 11.624796 4.301481 3.314815 14.767140 -3.840438 0.000000 0.000000 0.000000 3.333460 1.496834 -1.041302 1.067001 0.453810 -6.009709 -1.287092 -2.577562 -0.528660 -60.493510 4.350334 -46.854766 179.905475 -75.041567 -179.776002 0.000000 0.000000 0.000000 3.325824 1.065853 -1.210384 3.712732 20.420575 -5.749603 -6.301109 -2.152378 2.323457 -49.470507 18.053771 60.085454 -177.473846 63.173745 176.384472 0.000000 0.000000 0.000000 
2.867521 91.522842 9.870014 0.000000 0.000000 0.000000 -4.799714 -45.036847 -2.926229 -41.549236 0.008606 26.535886 59.126994 2.827779 -1.093521 -7.614233 -6.594954 -12.299827 -3.362709 -0.108508 1.005293 0.000000 0.000000 0.000000 -6.464028 -40.098121 -2.646060 -15.180847 -12.886297 -30.137021 55.833521 -6.510471 -7.424950 -21.884927 -12.617111 29.372252 -6.166185 0.755664 -0.155453 0.000000 0.000000 0.000000 -5.508213 -39.356677 -2.540336 12.727623 8.145717 -1.279548 2.377429 1.509619 -1.203050 0.952668 -0.183876 0.976813 0.000000 0.000000 0.000000 3.554231 1.065127 -0.675755 -8.112246 11.941871 3.445172 4.093180 15.837155 -4.701780 0.000000 0.000000 0.000000 3.519882 1.331300 -0.845182 1.207941 0.595173 -6.653345 -1.332755 -2.482324 -0.595263 -59.675834 4.582357 -47.155264 179.626981 -75.859735 179.943451 0.000000 0.000000 0.000000 3.558528 0.978445 -0.966913 3.703085 19.494822 -5.896701 -5.726610 -2.035710 2.211241 -51.482739 18.176583 63.266724 -177.935430 63.890279 176.727825 0.000000 0.000000 0.000000 
2.428244 91.801918 7.251999 0.000000 0.000000 0.000000 -5.225166 -45.480187 -2.534109 -41.347083 -0.270074 26.762047 57.503568 2.719873 -0.863208 -5.350344 -6.853128 -12.203702 -2.979104 -0.035336 0.636802 0.000000 0.000000 0.000000 -7.327058 -40.923140 -2.353249 -15.299035 -12.450264 -30.208171 54.271379 -6.955525 -7.061435 -23.027250 -11.887806 28.660778 -4.231557 0.695279 0.053722 0.000000 0.000000 0.000000 -5.765638 -40.315356 -1.955142 12.531527 7.843765 -0.737170 2.426324 1.347717 -1.002480 0.811680 -0.098375 0.830878 0.000000 0.000000 0.000000 3.467711 0.965470 -0.491556 -6.986031 12.197124 2.608274 4.819548 16.626338 -5.552021 0.000000 0.000000 0.000000 3.653849 1.181112 -0.681417 1.341234 0.736520 -7.311951 -1.305069 -2.436529 -0.609127 -58.458223 4.613564 -47.503020 179.437553 -76.306122 179.809716 0.000000 0.000000 0.000000 3.770266 0.913029 -0.755449 3.705526 18.642387 -5.998097 -5.318518 -2.108455 2.106140 -53.150271 18.650583 65.969963 -178.530708 65.044192 177.203698 0.000000 0.000000 0.000000 
1.932185 92.262939 4.808491 0.000000 0.000000 0.000000 -5.548006 -45.517579 -2.002417 -41.244927 -0.353471 26.431029 56.187790 2.562917 -0.419870 -3.635002 -7.438348 -11.825784 -2.633223 0.006921 0.188447 0.000000 0.000000 0.000000 -7.917569 -41.267764 -1.912850 -15.379679 -12.343645 -30.056538 52.659632 -7.489868 -6.662289 -23.954416 -11.149444 27.114931 -2.492880 0.662257 0.407218 0.000000 0.000000 0.000000 -5.848167 -40.934594 -1.244442 12.363168 7.619215 -0.370589 2.448378 1.219303 -0.863742 0.622080 -0.012413 0.660863 0.000000 0.000000 0.000000 3.410358 0.879713 -0.363503 -5.794232 12.404488 1.862647 5.547142 17.233544 -6.361749 0.000000 0.000000 0.000000 3.729565 1.065653 -0.577341 1.463529 0.868415 -7.863252 -1.218259 -2.447388 -0.656471 -57.167761 4.499557 -47.894127 179.326521 -76.316081 179.762096 0.000000 0.000000 0.000000 3.920186 0.870363 -0.607743 3.725181 17.942804 -6.126699 -5.014889 -2.206773 2.026478 -54.471950 19.439547 68.321016 -178.991978 66.275620 177.574468 0.000000 0.000000 0.000000 
